<svg width="64" height="64" viewBox="0 0 64 64" xmlns="http://www.w3.org/2000/svg" role="img" aria-label="Kicker Ranking">
  <rect width="64" height="64" rx="12" fill="#1F2722"/>
  <path d="M16 44V20h6.5v9.5L32 20h8.2L29.5 30.8 41.2 44h-8.5l-7.4-8.8-2.8 2.8v6H16Z" fill="#FFFFFF"/>
  <path d="M42 44V20h10.2c2.7 0 4.9.7 6.4 2.1 1.6 1.4 2.4 3.3 2.4 5.7 0 1.5-.3 2.8-1 3.9-.7 1.1-1.7 2-3 2.6L62 44h-7.3l-4.2-8.4h-2V44H42Zm6.5-13.6h3.1c1 0 1.8-.2 2.3-.7.5-.5.8-1.1.8-1.9s-.3-1.5-.8-1.9c-.5-.4-1.3-.7-2.3-.7h-3.1v5.2Z" fill="#FFFFFF"/>
  <circle cx="50" cy="49" r="4" fill="#2F7D5A"/>
</svg>
